<svg xmlns="http://www.w3.org/2000/svg" viewBox="0 0 1000 700" font-family="Segoe UI, Arial, sans-serif" font-size="11">
  <defs>
    <marker id="arr" markerWidth="7" markerHeight="5" refX="7" refY="2.5" orient="auto"><path d="M0,0 L7,2.5 L0,5Z" fill="#555"/></marker>
    <marker id="arr-g" markerWidth="7" markerHeight="5" refX="7" refY="2.5" orient="auto"><path d="M0,0 L7,2.5 L0,5Z" fill="#2e7d32"/></marker>
    <marker id="arr-p" markerWidth="7" markerHeight="5" refX="7" refY="2.5" orient="auto"><path d="M0,0 L7,2.5 L0,5Z" fill="#7b1fa2"/></marker>
  </defs>
  <style>
    .E{fill:#dce8f5;stroke:#2962a8;stroke-width:1.5}
    .P{fill:#fff3e0;stroke:#e65100;stroke-width:1.5;rx:8;ry:8}
    .D{fill:#e8f5e9;stroke:#2e7d32;stroke-width:1.5}
    .U{fill:#f3e5f5;stroke:#7b1fa2;stroke-width:2;rx:6}
    .b{font-weight:700;font-size:11px} .n{font-size:10px} .d{font-size:9px;fill:#777} .f{font-size:8.5px;fill:#666}
    .s{font-size:11px;font-weight:600;fill:#aaa;letter-spacing:1px}
    .lk{fill:none;stroke:#555;stroke-width:1.1;marker-end:url(#arr)}
    .lg{fill:none;stroke:#2e7d32;stroke-width:1.1;marker-end:url(#arr-g)}
    .lp{fill:none;stroke:#7b1fa2;stroke-width:1.1;marker-end:url(#arr-p)}
    .ld{fill:none;stroke:#aaa;stroke-width:1;stroke-dasharray:4,3;marker-end:url(#arr)}
  </style>

  <!-- LAYER 1: SOURCES -->
  <text x="490" y="16" text-anchor="middle" class="s">ЗАГРУЗКА ДАННЫХ</text>
  <rect x="295" y="25" width="150" height="38" class="E"/>
  <text x="370" y="42" text-anchor="middle" class="b">E1 CrossRef API</text>
  <text x="370" y="55" text-anchor="middle" class="d">affiliation=Innopolis</text>
  <rect x="535" y="25" width="150" height="38" class="E"/>
  <text x="610" y="42" text-anchor="middle" class="b">E2 OpenAlex API</text>
  <text x="610" y="55" text-anchor="middle" class="d">ROR: 02b7jh107</text>

  <!-- P1, P2, P3 -->
  <rect x="300" y="88" width="140" height="34" class="P"/>
  <text x="370" y="102" text-anchor="middle" class="b">1.0</text>
  <text x="370" y="115" text-anchor="middle" class="n">Парсинг CrossRef</text>
  <rect x="540" y="88" width="140" height="34" class="P"/>
  <text x="610" y="102" text-anchor="middle" class="b">2.0</text>
  <text x="610" y="115" text-anchor="middle" class="n">Парсинг OpenAlex</text>
  <path d="M370,63 L370,88" class="lk"/><text x="305" y="79" class="f">articles JSON</text>
  <path d="M610,63 L610,88" class="lk"/><text x="625" y="79" class="f">works JSON</text>

  <rect x="420" y="145" width="140" height="34" class="P"/>
  <text x="490" y="159" text-anchor="middle" class="b">3.0</text>
  <text x="490" y="172" text-anchor="middle" class="n">Дедупликация и вставка</text>
  <path d="M370,122 L370,145 L420,145" class="lk"/><text x="305" y="138" class="f">ArticleCreate[]</text>
  <path d="M610,122 L610,145 L560,145" class="lk"/><text x="565" y="138" class="f">+ topics</text>

  <!-- D1 MAIN STORE -->
  <rect x="320" y="205" width="340" height="32" class="D"/>
  <line x1="320" y1="214" x2="660" y2="214" stroke="#2e7d32" stroke-width="1"/>
  <text x="490" y="212" text-anchor="middle" class="b">D1  articles</text>
  <text x="490" y="230" text-anchor="middle" class="d">PostgreSQL 16 | pg_trgm | tsvector | GIN</text>
  <path d="M490,179 L490,205" class="lg"/>
  <text x="495" y="196" class="f">INSERT ON CONFLICT DO NOTHING</text>

  <!-- ENRICHMENT LAYER -->
  <text x="400" y="263" text-anchor="middle" class="s">ОБОГАЩЕНИЕ</text>
  <rect x="40" y="274" width="90" height="28" class="E"/>
  <text x="85" y="292" text-anchor="middle" class="b">E3 SJR</text>
  <rect x="330" y="274" width="110" height="28" class="E"/>
  <text x="385" y="292" text-anchor="middle" class="b">E4 МОН API</text>
  <rect x="540" y="274" width="110" height="28" class="E"/>
  <text x="595" y="292" text-anchor="middle" class="b">E5 CORE JSON</text>

  <rect x="25" y="322" width="100" height="34" class="P"/>
  <text x="75" y="335" text-anchor="middle" class="b">4.0</text>
  <text x="75" y="348" text-anchor="middle" class="n">Квартили SJR</text>
  <rect x="150" y="322" width="110" height="34" class="P"/>
  <text x="205" y="335" text-anchor="middle" class="b">5.0</text>
  <text x="205" y="348" text-anchor="middle" class="n">Нормализация типов</text>
  <rect x="285" y="322" width="110" height="34" class="P"/>
  <text x="340" y="335" text-anchor="middle" class="b">6.0</text>
  <text x="340" y="348" text-anchor="middle" class="n">Темы OpenAlex</text>
  <rect x="420" y="322" width="120" height="34" class="P"/>
  <text x="480" y="335" text-anchor="middle" class="b">7.0</text>
  <text x="480" y="348" text-anchor="middle" class="n">Белый список МОН</text>
  <rect x="565" y="322" width="100" height="34" class="P"/>
  <text x="615" y="335" text-anchor="middle" class="b">8.0</text>
  <text x="615" y="348" text-anchor="middle" class="n">CORE ранги</text>

  <!-- E to P enrichment -->
  <path d="M85,302 L75,322" class="lk"/>
  <path d="M385,302 L480,322" class="lk"/>
  <path d="M595,302 L615,322" class="lk"/>
  <path d="M685,55 L720,55 L720,340 L665,340" class="ld"/>
  <text x="725" y="190" class="f" transform="rotate(90,725,190)">DOI lookup</text>

  <!-- P to D1 enrichment -->
  <path d="M75,322 L75,237 L320,237" class="lg"/>
  <text x="85" y="316" class="f">UPD quartile</text>
  <path d="M205,322 L205,237 L320,237" class="lg"/>
  <text x="215" y="316" class="f">UPD type</text>
  <path d="M340,322 L340,237" class="lg"/>
  <text x="290" y="316" class="f">UPD topics</text>
  <path d="M480,322 L480,237 L500,237" class="lg"/>
  <text x="485" y="316" class="f">UPD white_list</text>
  <path d="M615,322 L615,237 L660,237" class="lg"/>
  <text x="620" y="316" class="f">UPD core_rank</text>

  <!-- SCOPUS LAYER -->
  <text x="110" y="393" class="s">SCOPUS</text>
  <rect x="25" y="402" width="120" height="36" class="E"/>
  <text x="85" y="418" text-anchor="middle" class="b">E6 Scopus Export</text>
  <text x="85" y="432" text-anchor="middle" class="d">XLSX / CSV</text>

  <rect x="30" y="460" width="120" height="38" class="P"/>
  <text x="90" y="475" text-anchor="middle" class="b">9.0</text>
  <text x="90" y="490" text-anchor="middle" class="n">Импорт Scopus</text>
  <path d="M85,438 L85,460" class="lk"/>
  <text x="90" y="453" class="f">файл</text>
  <path d="M150,479 L330,479 L330,237" class="lg"/>
  <text x="160" y="472" class="f">SET in_scopus + INSERT</text>

  <!-- D2 -->
  <rect x="25" y="525" width="160" height="30" class="D"/>
  <line x1="25" y1="534" x2="185" y2="534" stroke="#2e7d32" stroke-width="1"/>
  <text x="105" y="532" text-anchor="middle" class="b">D2 scopus_issns.json</text>
  <text x="105" y="549" text-anchor="middle" class="d">74 400 ISSN | Feb 2026</text>

  <!-- QUERY LAYER -->
  <text x="600" y="393" text-anchor="middle" class="s">ОБРАБОТКА ЗАПРОСОВ</text>
  <rect x="370" y="405" width="120" height="38" class="P"/>
  <text x="430" y="420" text-anchor="middle" class="b">10.0</text>
  <text x="430" y="434" text-anchor="middle" class="n">Поиск и фильтрация</text>
  <rect x="530" y="405" width="130" height="38" class="P"/>
  <text x="595" y="420" text-anchor="middle" class="b">11.0</text>
  <text x="595" y="434" text-anchor="middle" class="n">Агрегация статистики</text>
  <rect x="700" y="405" width="130" height="38" class="P"/>
  <text x="765" y="420" text-anchor="middle" class="b">12.0</text>
  <text x="765" y="434" text-anchor="middle" class="n">Экспорт XLSX/CSV</text>

  <!-- D1 to queries -->
  <path d="M430,237 L430,405" class="lg"/>
  <text x="435" y="385" class="f">SELECT</text>
  <path d="M520,237 L520,380 L595,380 L595,405" class="lg"/>
  <text x="525" y="380" class="f">GROUP BY</text>
  <path d="M560,237 L560,370 L765,370 L765,405" class="lg"/>
  <text x="660" y="365" class="f">SELECT all</text>

  <!-- D2 to queries -->
  <path d="M185,540 L270,540 L270,430 L370,430" class="lg"/>
  <text x="230" y="535" class="f">ISSN set</text>
  <path d="M185,545 L290,545 L290,435 L530,435" class="lg"/>
  <path d="M185,550 L310,550 L310,440 L700,440" class="lg"/>
  <text x="350" y="455" class="f">ISSN set: фильтр scopus_only + колонка В Scopus</text>

  <!-- USER -->
  <rect x="420" y="495" width="170" height="38" class="U"/>
  <text x="505" y="512" text-anchor="middle" class="b" style="fill:#4a148c">E7  Пользователь</text>
  <text x="505" y="526" text-anchor="middle" class="d" style="fill:#7b1fa2">веб-интерфейс Next.js</text>

  <path d="M445,495 L445,480 L430,480 L430,443" class="lp"/>
  <text x="395" y="478" class="f">поиск</text>
  <path d="M410,443 L410,490 L420,490 L420,495" class="lp"/>
  <text x="355" y="490" class="f">публикации</text>
  <path d="M555,495 L555,480 L595,480 L595,443" class="lp"/>
  <text x="560" y="477" class="f">параметры</text>
  <path d="M610,443 L610,488 L565,488 L565,495" class="lp"/>
  <text x="615" y="480" class="f">статистика</text>
  <path d="M590,514 L720,514 L720,480 L765,480 L765,443" class="lp"/>
  <text x="650" y="509" class="f">запрос экспорта</text>
  <path d="M780,443 L780,522 L590,522" class="lp"/>
  <text x="690" y="532" class="f">файл XLSX/CSV</text>
  <path d="M420,520 L90,520 L90,498" class="lp"/>
  <text x="230" y="516" class="f">загрузка Scopus файла</text>

  <!-- LEGEND -->
  <rect x="25" y="575" width="940" height="48" fill="#fafafa" stroke="#ddd" rx="4"/>
  <text x="45" y="594" font-size="10" font-weight="700" fill="#555">Легенда (Гейн-Сарсон):</text>
  <rect x="50" y="602" width="45" height="14" class="E"/>
  <text x="105" y="613" font-size="9" fill="#666">Внешняя сущность</text>
  <rect x="220" y="602" width="45" height="14" class="P"/>
  <text x="275" y="613" font-size="9" fill="#666">Процесс</text>
  <rect x="370" y="602" width="45" height="14" class="D"/>
  <line x1="370" y1="608" x2="415" y2="608" stroke="#2e7d32" stroke-width="1"/>
  <text x="425" y="613" font-size="9" fill="#666">Хранилище</text>
  <line x1="530" y1="609" x2="575" y2="609" class="lk"/>
  <text x="585" y="613" font-size="9" fill="#666">Поток данных</text>
  <line x1="690" y1="609" x2="735" y2="609" class="ld"/>
  <text x="745" y="613" font-size="9" fill="#666">Фоновый поток</text>
</svg>